<?xml version="1.0" standalone="no"?>
<!DOCTYPE svg PUBLIC "-//W3C//DTD SVG 20010904//EN"
 "http://www.w3.org/TR/2001/REC-SVG-20010904/DTD/svg10.dtd">
<svg version="1.0" xmlns="http://www.w3.org/2000/svg"
 width="700.000000pt" height="700.000000pt" viewBox="0 0 700.000000 700.000000"
 preserveAspectRatio="xMidYMid meet">
<metadata>
Created by potrace 1.14, written by Peter Selinger 2001-2017
</metadata>
<g transform="translate(0.000000,700.000000) scale(0.100000,-0.100000)"
fill="#000000" stroke="none">
<path d="M3433 5836 c-60 -19 -99 -51 -130 -104 -53 -89 -32 -219 47 -285 16
-14 39 -28 50 -32 19 -6 20 -15 20 -265 l0 -260 -22 -4 c-13 -3 -73 -7 -135
-11 -62 -3 -126 -8 -142 -11 l-31 -6 0 93 c0 140 -8 160 -110 264 -72 74 -86
94 -80 110 5 11 9 45 9 75 1 153 -138 261 -287 221 -53 -15 -119 -73 -143
-126 -23 -49 -24 -133 -3 -183 42 -101 160 -160 264 -132 l45 12 72 -78 73
-79 0 -100 0 -100 -87 -18 c-462 -94 -921 -317 -1308 -636 -140 -115 -564
-539 -586 -586 -24 -52 -24 -138 0 -190 11 -24 78 -99 168 -187 157 -155 169
-163 227 -137 32 15 50 57 37 90 -5 13 -66 80 -136 149 -147 146 -162 167
-141 208 20 39 421 431 546 533 186 153 345 256 547 358 104 52 286 131 302
131 3 0 -15 -21 -40 -47 -205 -214 -340 -497 -380 -800 -15 -111 -6 -362 16
-463 61 -279 186 -511 384 -712 59 -59 97 -105 86 -102 -11 3 -72 26 -135 51
-262 103 -542 268 -773 456 -117 95 -143 104 -191 66 -23 -18 -27 -28 -24 -63
3 -38 9 -46 103 -125 118 -98 336 -245 490 -330 212 -116 507 -228 758 -286
l117 -28 0 -101 0 -101 -73 -79 -72 -78 -45 12 c-104 28 -222 -31 -264 -132
-66 -158 66 -335 236 -315 81 10 145 56 179 132 19 42 24 133 9 170 -6 16 7
35 76 106 46 48 91 103 99 122 10 24 15 70 15 138 l0 102 43 -7 c23 -3 97 -9
165 -12 l122 -7 0 -263 c0 -254 -1 -263 -20 -269 -11 -4 -34 -18 -50 -32 -79
-66 -100 -196 -47 -286 88 -150 306 -150 394 0 53 90 32 220 -47 286 -16 14
-39 28 -50 32 -19 6 -20 15 -20 265 l0 259 33 5 c17 3 82 8 142 11 61 3 120 8
133 12 22 5 22 4 22 -88 0 -140 8 -160 110 -264 72 -74 86 -94 80 -110 -5 -11
-9 -45 -9 -75 -1 -153 138 -261 287 -221 53 15 119 73 143 126 23 49 24 133 3
183 -42 101 -160 160 -264 132 l-45 -12 -73 78 -72 79 2 99 3 99 105 23 c462
103 890 309 1260 604 145 116 594 562 620 615 12 26 20 62 20 95 0 33 -8 69
-20 95 -26 55 -477 500 -625 619 -372 296 -821 511 -1257 601 l-88 18 0 101 0
101 73 79 72 78 45 -12 c104 -28 222 31 264 132 66 158 -66 335 -236 315 -81
-10 -145 -56 -179 -132 -19 -42 -24 -133 -9 -170 6 -16 -7 -35 -76 -106 -46
-48 -91 -103 -99 -122 -10 -24 -15 -70 -15 -137 l0 -101 -57 7 c-32 4 -105 10
-163 13 l-105 6 -3 262 c-2 255 -2 262 18 268 58 18 115 99 126 178 22 157
-141 293 -293 243z m112 -171 c14 -13 25 -33 25 -43 0 -33 -38 -72 -70 -72
-32 0 -70 39 -70 72 0 25 44 68 70 68 12 0 32 -11 45 -25z m-815 -215 c29 -29
26 -74 -6 -99 -15 -12 -32 -21 -39 -21 -7 0 -24 9 -39 21 -48 38 -22 119 39
119 14 0 34 -9 45 -20z m1630 0 c29 -29 26 -74 -6 -99 -15 -12 -32 -21 -39
-21 -7 0 -24 9 -39 21 -48 38 -22 119 39 119 14 0 34 -9 45 -20z m-535 -740
c164 -21 173 -24 259 -68 201 -103 365 -257 494 -462 38 -61 68 -98 84 -104
41 -15 77 1 96 40 16 35 16 36 -18 102 -19 36 -61 102 -93 146 l-59 79 48 -28
c250 -144 424 -283 732 -589 198 -196 255 -259 264 -288 22 -75 11 -91 -264
-364 -265 -262 -389 -369 -573 -490 -99 -64 -270 -164 -282 -164 -3 0 20 27
50 60 116 124 227 318 286 495 47 143 62 229 68 400 4 135 2 179 -16 284 -22
131 -36 165 -77 183 -33 15 -91 -11 -99 -45 -4 -14 4 -71 16 -128 27 -123 32
-346 10 -469 -75 -420 -363 -774 -772 -946 -164 -69 -217 -78 -479 -78 -192 0
-247 4 -300 18 -285 77 -531 235 -693 448 -79 104 -173 278 -207 385 -83 259
-81 557 5 809 104 300 329 562 611 706 87 45 93 46 264 67 96 11 191 23 210
25 67 8 266 -3 435 -24z m-1121 -3061 c32 -25 35 -70 6 -99 -41 -41 -110 -10
-110 49 0 30 38 71 65 71 7 0 24 -9 39 -21z m1630 0 c32 -25 35 -70 6 -99 -41
-41 -110 -10 -110 49 0 30 38 71 65 71 7 0 24 -9 39 -21z m-805 -225 c12 -15
21 -35 21 -46 0 -25 -44 -68 -70 -68 -26 0 -70 43 -70 68 0 33 38 72 70 72 19
0 36 -9 49 -26z"/>
<path d="M3290 4635 c-280 -53 -536 -213 -712 -445 -64 -84 -151 -262 -182
-371 -134 -472 31 -957 424 -1248 197 -146 426 -221 674 -221 195 1 350 36
515 117 297 146 511 406 607 738 28 95 29 109 29 295 0 184 -2 201 -28 295
-115 405 -415 705 -817 820 -83 24 -117 28 -265 31 -119 2 -192 -1 -245 -11z
m316 -540 c128 -23 220 -71 315 -165 239 -236 247 -603 19 -844 -123 -129
-260 -190 -430 -190 -172 -1 -304 50 -423 164 -120 114 -181 240 -193 405 -14
175 51 340 185 470 92 90 207 146 334 165 80 12 98 11 193 -5z"/>
<path d="M3381 3964 c-84 -22 -165 -71 -226 -135 -66 -69 -101 -140 -122 -249
-15 -73 -15 -87 0 -161 21 -108 59 -181 132 -254 193 -192 499 -188 681 7 141
153 171 358 80 542 -98 200 -333 307 -545 250z"/>
</g>
</svg>
