<?xml version="1.0" standalone="no"?>
<!DOCTYPE svg PUBLIC "-//W3C//DTD SVG 20010904//EN"
 "http://www.w3.org/TR/2001/REC-SVG-20010904/DTD/svg10.dtd">
<svg version="1.0" xmlns="http://www.w3.org/2000/svg"
 width="1000.000000pt" height="1000.000000pt" viewBox="0 0 1000.000000 1000.000000"
 preserveAspectRatio="xMidYMid meet">
<metadata>
Created by potrace 1.14, written by Peter Selinger 2001-2017
</metadata>
<g transform="translate(0.000000,1000.000000) scale(0.100000,-0.100000)"
fill="#000000" stroke="none">
<path d="M9992 9983 c-1 -7 -9 -13 -17 -13 -8 0 -15 -4 -15 -9 0 -5 -17 -17
-37 -26 -36 -17 -92 -53 -103 -66 -4 -5 -25 -12 -70 -24 -3 0 -14 -4 -25 -8
-11 -3 -31 -8 -45 -11 -40 -7 -84 -18 -95 -25 -13 -7 -32 -11 -70 -15 -28 -3
-62 -10 -112 -21 -52 -12 -62 -14 -99 -20 -22 -4 -53 -8 -70 -10 -17 -2 -58
-10 -90 -19 -32 -8 -108 -17 -169 -20 -60 -3 -128 -7 -150 -10 -22 -2 -80 -7
-128 -10 -49 -3 -93 -8 -98 -12 -6 -3 -49 -8 -97 -10 -111 -5 -199 -11 -237
-18 -16 -3 -48 -7 -70 -11 -58 -8 -71 -11 -155 -34 -121 -35 -255 -68 -305
-75 -11 -2 -21 -5 -22 -6 -2 -1 -6 -3 -10 -5 -5 -1 -15 -4 -23 -7 -8 -2 -46
-15 -85 -27 -70 -23 -123 -44 -159 -63 -10 -5 -28 -11 -39 -14 -11 -2 -23 -8
-26 -12 -3 -5 -16 -12 -28 -16 -13 -4 -23 -11 -23 -16 0 -4 -11 -11 -25 -14
-14 -4 -25 -11 -25 -16 0 -6 -7 -10 -15 -10 -17 0 -199 -180 -225 -222 -9 -16
-33 -45 -52 -66 -20 -21 -45 -60 -57 -87 -12 -27 -28 -56 -36 -65 -15 -17 -77
-160 -69 -160 3 0 -1 -10 -8 -22 -7 -13 -13 -25 -13 -28 -1 -3 -6 -21 -13 -41
-7 -20 -14 -45 -17 -55 -2 -10 -18 -70 -35 -132 -17 -62 -33 -131 -35 -155
-14 -126 -18 -154 -30 -217 -3 -19 -8 -69 -10 -110 -2 -41 -6 -86 -9 -100 -4
-14 -7 -60 -8 -102 -1 -48 -5 -79 -12 -79 -6 -1 -29 -3 -51 -5 -51 -3 -119
-11 -170 -20 -21 -3 -78 -8 -125 -10 -47 -1 -96 -5 -110 -9 -43 -10 -130 -16
-260 -20 -69 -2 -125 -4 -125 -5 0 -1 -11 -3 -25 -5 -14 -1 -50 -6 -80 -9 -30
-4 -80 -9 -110 -11 -131 -11 -200 -20 -260 -35 -43 -10 -107 -17 -230 -25
-138 -8 -212 -15 -222 -21 -9 -6 -42 -11 -127 -20 -30 -3 -59 -8 -64 -11 -6
-3 -20 -7 -31 -8 -23 -3 -76 -12 -117 -20 -14 -3 -55 -14 -90 -26 -35 -11 -71
-22 -79 -24 -28 -6 -121 -45 -148 -62 -54 -34 -122 -110 -138 -154 -20 -57
-12 -136 20 -194 23 -40 23 -45 8 -57 -11 -9 -14 -10 -8 0 4 6 3 12 -3 12 -5
0 -13 -5 -16 -10 -4 -6 -11 -8 -16 -5 -5 4 -6 -2 -2 -12 6 -15 5 -16 -9 -5
-14 11 -18 10 -26 -4 -6 -10 -16 -15 -25 -11 -12 4 -14 2 -10 -11 6 -14 4 -15
-9 -4 -13 10 -18 10 -24 1 -5 -8 -3 -9 6 -4 9 5 11 4 6 -3 -4 -7 -13 -12 -21
-12 -8 0 -18 -7 -23 -16 -5 -9 -13 -15 -18 -15 -24 2 -45 -12 -39 -26 5 -14 3
-14 -12 -2 -14 12 -16 12 -8 0 6 -11 4 -13 -7 -8 -11 4 -15 0 -14 -11 3 -19
33 -23 56 -7 8 5 12 5 8 1 -4 -5 0 -15 10 -22 13 -9 20 -10 31 -1 12 9 13 9 7
0 -4 -7 -3 -13 3 -13 5 0 13 5 16 11 4 6 13 8 21 5 8 -3 14 -1 14 5 0 6 5 7
10 4 6 -4 10 -3 9 2 -3 20 2 25 15 14 11 -9 16 -9 22 0 5 8 3 9 -6 4 -9 -6
-11 -4 -6 4 5 7 14 10 22 7 8 -3 13 -2 13 2 -3 19 2 25 11 12 9 -13 10 -13 10
0 0 9 10 16 22 17 11 1 25 8 29 15 5 7 9 9 9 4 0 -5 7 -3 15 4 8 7 15 9 15 5
0 -4 7 -2 15 5 8 6 19 9 25 5 5 -3 19 -8 31 -10 25 -5 132 -56 140 -67 9 -13
68 -22 213 -33 44 -3 83 -8 88 -11 5 -3 28 -7 51 -9 23 -2 78 -7 122 -11 44
-4 186 -8 315 -9 129 -2 353 -5 498 -9 277 -7 303 -11 317 -56 3 -10 13 -21
22 -25 14 -5 13 -2 -3 16 -10 13 0 8 24 -11 23 -18 42 -37 42 -42 0 -5 5 -6
10 -3 6 3 10 1 10 -5 0 -6 12 -15 26 -20 16 -6 24 -16 21 -24 -8 -21 27 -8 42
16 7 11 8 17 2 13 -6 -3 -11 1 -11 10 0 10 5 13 13 9 6 -4 3 2 -7 14 -12 14
-14 22 -7 22 7 0 9 5 6 10 -4 6 -10 8 -15 5 -4 -3 -7 6 -6 19 2 15 -1 23 -8
20 -6 -2 -20 2 -31 10 -18 14 -15 15 40 16 90 2 225 8 307 15 72 6 401 16 488
15 179 -3 356 3 490 15 36 4 88 6 115 5 83 -2 305 -3 390 -2 44 1 83 -2 87 -6
16 -16 -45 -165 -102 -252 -19 -30 -44 -73 -54 -95 -10 -22 -31 -59 -46 -82
-32 -46 -107 -200 -114 -233 -1 -3 -14 -36 -28 -75 -28 -72 -34 -97 -48 -200
-9 -66 -6 -365 4 -405 4 -14 9 -42 12 -63 5 -43 47 -163 74 -217 10 -19 29
-44 42 -56 32 -29 96 -64 116 -64 9 0 33 -10 52 -21 26 -16 49 -21 94 -20 74
2 98 21 115 93 12 53 50 140 64 146 4 2 5 7 2 12 -3 4 2 13 10 20 8 7 15 17
15 22 0 9 14 43 41 103 5 11 11 30 13 41 6 29 38 91 103 199 30 50 59 99 66
110 17 31 81 129 87 135 10 10 31 45 36 63 4 9 10 17 15 17 5 0 9 7 9 15 0 8
3 15 8 15 4 0 22 25 40 55 18 30 37 55 43 55 5 0 8 4 6 9 -1 5 43 56 98 113
56 56 119 125 140 152 22 28 48 59 58 70 11 12 59 73 109 136 49 63 104 133
121 155 18 22 66 75 107 119 41 43 80 84 85 90 6 6 22 27 35 46 14 19 32 42
41 50 18 17 107 125 156 192 18 23 49 61 68 83 19 22 35 43 35 46 0 3 12 19
28 35 53 57 171 189 191 216 l21 26 -3 1204 c-1 661 -3 1197 -5 1191z"/>
<path d="M3601 6594 c-1 -7 -14 -10 -31 -9 -27 2 -29 1 -18 -13 8 -10 9 -13 1
-9 -6 4 -27 -8 -47 -28 -20 -19 -40 -35 -45 -35 -5 0 -15 -8 -22 -17 -13 -16
-12 -17 4 -4 9 8 20 11 24 7 3 -3 2 -6 -4 -6 -14 0 -123 -106 -123 -120 0 -6
-4 -9 -9 -6 -4 3 -13 -6 -19 -19 -7 -15 -8 -26 -2 -30 6 -4 10 2 10 12 0 14 2
15 9 5 7 -11 9 -10 14 3 5 12 11 14 26 6 22 -12 35 -3 20 15 -9 11 -5 11 20 4
23 -6 33 -5 43 8 11 13 11 14 -2 7 -13 -8 -13 -7 -1 8 14 18 26 23 16 8 -3 -5
-1 -12 4 -15 5 -3 11 1 15 9 3 8 13 15 21 15 9 0 13 5 10 10 -3 6 -1 10 4 10
6 0 11 7 11 16 0 14 3 15 18 3 9 -7 14 -9 10 -5 -4 5 0 15 10 23 16 12 16 13
-2 6 -19 -6 -19 -6 0 13 10 11 20 16 22 12 5 -10 32 17 32 32 0 6 4 9 9 5 6
-3 15 3 21 14 7 13 16 18 28 14 9 -3 14 -2 9 2 -4 5 1 18 10 29 12 13 13 17 3
10 -8 -6 -24 -14 -34 -18 -15 -5 -17 -4 -8 7 9 10 8 14 -3 14 -8 0 -15 -5 -15
-11 0 -6 -5 -4 -10 4 -9 13 -10 13 -11 0 0 -10 -3 -8 -9 5 -5 11 -9 15 -9 9z"/>
<path d="M6167 6516 c-16 -12 -15 -13 10 -13 16 0 22 2 15 4 -6 3 -10 9 -6 14
7 12 2 11 -19 -5z"/>
<path d="M4918 6436 c-9 -6 -37 -11 -62 -10 -25 1 -49 -2 -52 -7 -3 -5 -23 -9
-44 -9 -21 0 -41 -4 -44 -9 -3 -4 -26 -8 -52 -8 -26 0 -49 -6 -54 -13 -4 -7
-13 -9 -19 -6 -6 4 -11 1 -11 -8 0 -9 -6 -13 -13 -10 -8 3 -20 -2 -27 -10 -7
-9 -16 -13 -21 -10 -5 3 -9 0 -9 -6 0 -7 -7 -10 -15 -6 -8 3 -15 1 -15 -4 0
-5 -11 -12 -25 -16 -14 -3 -25 -10 -25 -15 0 -5 -3 -8 -7 -7 -15 3 -43 -14
-38 -22 3 -5 -13 -16 -34 -26 -22 -10 -38 -21 -36 -25 3 -4 -2 -10 -11 -13 -8
-3 -13 -10 -9 -16 3 -5 -8 -21 -24 -36 -17 -15 -35 -42 -41 -60 -7 -19 -16
-34 -21 -34 -6 0 -8 -4 -5 -9 4 -5 2 -11 -3 -13 -6 -1 -11 -15 -13 -30 -2 -15
-7 -30 -11 -34 -4 -4 -7 -16 -7 -26 0 -10 -4 -18 -8 -18 -4 0 -9 -21 -9 -46
-1 -26 -5 -50 -10 -53 -12 -8 -8 -128 5 -168 6 -17 9 -33 8 -35 -1 -2 18 -22
41 -45 24 -23 43 -37 43 -32 0 6 6 7 12 2 17 -9 71 -4 79 9 3 5 10 8 16 6 6
-2 28 15 50 38 36 37 39 44 38 93 -1 34 3 55 11 58 12 4 10 45 -2 65 -3 4 -1
8 5 8 6 0 7 7 4 17 -4 10 -2 14 4 10 6 -4 14 4 17 18 4 14 11 23 16 20 5 -3
11 4 15 15 4 11 11 18 16 15 5 -4 9 -1 9 5 0 6 5 8 10 5 6 -3 10 -1 10 5 0 6
5 8 10 5 6 -3 10 -1 10 4 0 6 7 11 15 11 8 0 15 4 15 9 0 6 9 8 20 6 12 -2 23
2 27 10 3 8 9 12 15 9 5 -3 16 2 23 12 10 13 14 15 15 5 0 -10 3 -11 13 -2 8
6 17 8 20 4 4 -3 7 -1 7 6 0 7 10 12 23 11 45 -4 78 0 72 9 -3 6 7 8 22 6 16
-2 32 -4 36 -4 5 -1 6 -4 4 -8 -3 -5 10 -8 29 -9 18 0 43 -9 54 -19 11 -10 20
-14 20 -10 0 5 10 -1 23 -12 12 -11 37 -26 55 -34 17 -8 32 -18 32 -23 0 -4 9
-6 20 -3 10 3 18 0 17 -5 -1 -6 5 -12 14 -13 25 -4 77 -63 74 -83 -1 -9 3 -20
8 -24 6 -3 12 -15 13 -25 1 -10 7 -33 12 -50 7 -22 7 -33 1 -33 -6 0 -7 -5 -3
-11 8 -14 9 -107 1 -115 -3 -3 -3 -12 0 -20 3 -8 0 -14 -6 -14 -6 0 -11 -3
-10 -7 2 -16 -14 -53 -22 -53 -5 0 -9 -7 -9 -15 0 -8 -18 -32 -39 -54 -21 -22
-36 -42 -33 -45 3 -3 0 -6 -6 -6 -7 0 -12 -4 -12 -10 0 -5 -18 -28 -40 -50
-23 -23 -39 -44 -36 -48 2 -4 -9 -18 -25 -31 -16 -13 -27 -27 -24 -31 2 -4 -4
-15 -15 -25 -11 -10 -20 -24 -20 -31 0 -7 -9 -19 -20 -27 -11 -8 -17 -17 -13
-20 3 -4 -5 -17 -19 -30 -13 -12 -23 -28 -20 -35 2 -7 -1 -12 -6 -12 -9 0 -13
-9 -21 -45 -1 -5 -10 -18 -18 -27 -9 -10 -12 -18 -7 -18 5 -1 -1 -9 -14 -20
-12 -10 -21 -22 -20 -27 3 -9 -31 -64 -47 -75 -5 -4 -10 -11 -10 -15 -1 -4
-13 -27 -28 -51 -15 -23 -25 -48 -21 -55 4 -7 4 -9 -1 -5 -9 8 -42 -31 -37
-44 1 -5 -3 -8 -9 -8 -5 0 -8 -4 -4 -9 3 -5 -2 -16 -11 -25 -8 -9 -13 -20 -10
-25 4 -5 0 -15 -7 -23 -8 -7 -13 -28 -12 -47 1 -18 -4 -35 -10 -37 -13 -5 -14
-82 -1 -103 5 -8 10 -24 11 -35 3 -33 17 -58 49 -91 17 -16 33 -30 36 -31 3
-1 14 -5 25 -8 11 -4 24 -6 29 -6 5 1 12 -3 15 -8 9 -15 56 -19 54 -5 -2 9 8
11 29 9 47 -6 91 43 89 99 0 11 -2 53 -4 93 -2 39 0 72 5 72 4 0 8 11 8 24 0
14 5 28 10 31 6 3 10 17 10 31 0 13 4 24 9 24 6 0 8 9 6 20 -2 11 1 19 8 17 6
-1 11 10 11 26 -1 17 4 27 13 27 8 0 12 4 8 10 -3 5 3 18 14 29 10 10 22 33
26 50 4 19 13 31 22 31 9 0 14 2 11 5 -7 7 69 85 83 85 7 0 10 3 6 6 -7 7 91
104 105 104 12 0 158 146 152 152 -2 3 19 28 47 56 28 28 48 56 44 61 -3 6 1
11 10 11 9 0 13 5 10 10 -3 6 -3 10 2 10 4 0 19 20 32 45 13 25 28 45 33 45 5
0 8 6 6 12 -3 7 1 18 8 25 7 7 10 22 7 34 -4 15 -3 20 5 15 11 -7 17 11 13 42
-1 6 2 12 7 12 5 0 9 13 10 30 0 16 4 35 9 42 13 22 11 267 -3 272 -8 3 -11
17 -7 36 3 22 1 30 -6 25 -7 -4 -11 5 -11 22 0 16 -5 34 -12 41 -7 7 -9 12 -4
12 4 0 1 7 -8 15 -8 9 -13 21 -10 29 3 7 -2 19 -10 26 -9 7 -13 16 -10 21 3 5
0 9 -5 9 -6 0 -11 9 -11 19 0 11 -10 27 -22 35 -12 9 -19 18 -16 22 4 3 -1 14
-10 23 -9 10 -24 28 -32 40 -8 13 -39 47 -68 78 -37 38 -58 53 -70 48 -9 -3
-13 -3 -10 1 11 10 -34 42 -54 39 -10 -2 -18 2 -18 10 0 9 -11 13 -32 12 -20
-1 -32 2 -31 9 2 8 -10 10 -34 7 -23 -3 -33 -1 -29 6 4 7 -6 10 -29 9 -20 -1
-40 3 -43 9 -4 6 -29 10 -57 9 -32 -1 -57 4 -69 14 -17 13 -18 13 -11 0 7 -12
6 -13 -6 -3 -11 9 -18 8 -31 -1z"/>
<path d="M6377 6414 c-4 -4 -3 -12 1 -18 7 -12 9 -18 11 -42 0 -9 6 -12 13 -8
7 4 8 3 4 -5 -6 -9 -11 -9 -21 -1 -10 8 -13 6 -11 -7 0 -10 8 -21 16 -25 12
-5 12 -7 -2 -7 -15 -1 -16 -5 -6 -26 6 -14 13 -23 16 -20 9 9 44 -46 38 -60
-3 -10 0 -12 11 -8 13 5 15 2 9 -12 -4 -11 -4 -16 0 -13 9 10 34 -17 34 -36 0
-9 7 -16 16 -16 8 0 12 -4 9 -10 -3 -5 0 -10 7 -10 9 0 9 -3 -2 -10 -13 -8
-12 -10 4 -10 11 0 16 -3 13 -6 -4 -4 2 -15 14 -25 14 -12 16 -18 7 -22 -10
-4 -10 -6 1 -6 8 -1 20 -9 27 -18 12 -17 13 -17 10 2 -2 11 2 26 8 34 8 11 8
13 -1 7 -7 -4 -13 -3 -13 3 0 5 6 11 13 14 9 3 9 8 -2 21 -12 14 -12 16 0 11
11 -4 14 4 15 30 0 19 -3 35 -8 35 -5 0 -13 12 -18 26 -6 14 -14 23 -19 20 -5
-4 -7 4 -3 16 3 14 2 19 -6 14 -7 -4 -12 -1 -12 7 0 8 -10 19 -22 25 -14 6
-17 11 -8 11 10 1 7 6 -8 17 -12 8 -22 22 -22 30 0 13 -12 18 -32 15 -4 0 -4
7 -1 16 5 12 3 14 -7 8 -10 -6 -12 -4 -7 8 4 10 2 16 -5 14 -7 -1 -12 3 -13
10 0 7 -6 18 -13 25 -11 11 -12 10 -6 -5 5 -13 2 -16 -10 -11 -9 3 -13 10 -10
15 6 10 0 12 -9 3z"/>
<path d="M3351 6314 c0 -11 3 -14 6 -6 3 7 2 16 -1 19 -3 4 -6 -2 -5 -13z"/>
<path d="M3286 6283 c-6 -14 -5 -15 5 -6 7 7 10 15 7 18 -3 3 -9 -2 -12 -12z"/>
<path d="M3235 6060 c4 -6 -9 -9 -34 -7 -36 3 -39 2 -30 -16 9 -16 8 -17 -10
-8 -16 9 -22 8 -30 -6 -8 -14 -10 -15 -11 -3 0 13 -2 13 -9 0 -6 -8 -7 -18 -5
-22 3 -4 -3 -5 -12 -1 -11 4 -15 2 -11 -4 4 -6 0 -16 -9 -23 -8 -7 -13 -19
-10 -27 3 -7 1 -13 -4 -13 -6 0 -10 -8 -10 -17 -1 -19 -24 -56 -31 -49 -2 2
-5 -10 -6 -27 -2 -18 -7 -33 -13 -35 -6 -2 -8 -8 -4 -13 3 -5 -2 -12 -11 -15
-13 -5 -13 -9 -3 -22 10 -12 10 -14 1 -8 -9 5 -13 1 -13 -13 0 -10 -6 -22 -12
-24 -10 -4 -9 -6 1 -6 10 -1 11 -4 2 -15 -10 -12 -8 -13 8 -9 12 3 21 12 21
19 0 8 5 14 11 14 5 0 8 -4 5 -8 -3 -5 1 -9 9 -9 8 0 11 5 8 10 -4 6 1 8 11 4
10 -4 15 -3 11 3 -3 6 1 10 10 10 10 0 14 -5 9 -12 -5 -10 -4 -10 5 -2 15 13
52 86 40 78 -5 -3 -9 0 -9 5 0 6 8 11 18 11 14 0 15 2 2 10 -13 8 -8 14 11 12
3 -1 6 6 7 14 1 8 3 20 4 28 1 8 8 12 17 8 14 -5 14 -3 3 10 -10 13 -10 18 -1
24 8 5 9 3 4 -6 -5 -9 -4 -11 4 -6 9 6 9 11 -1 24 -10 12 -10 14 0 8 7 -4 12
-1 12 9 0 10 5 13 12 9 6 -4 8 -3 4 4 -3 6 -2 13 4 17 15 9 12 27 -2 20 -7 -4
-2 3 12 15 14 12 19 18 11 14 -9 -5 -12 -3 -7 4 4 7 13 12 19 12 7 0 13 9 14
20 1 11 -3 20 -8 20 -6 0 -7 -5 -4 -10z"/>
<path d="M6586 5958 c3 -5 10 -6 15 -3 13 9 11 12 -6 12 -8 0 -12 -4 -9 -9z"/>
<path d="M6769 5825 c-1 -3 -2 -8 -3 -12 -1 -5 -5 -14 -10 -22 -6 -10 -5 -16
3 -19 9 -3 9 -8 -1 -20 -11 -13 -11 -14 2 -7 11 6 11 4 -2 -11 -12 -14 -14
-24 -7 -37 7 -11 7 -17 -1 -17 -7 0 -7 -6 1 -21 6 -12 7 -19 1 -15 -5 3 -12
-3 -15 -14 -3 -13 0 -20 9 -20 8 0 14 -5 14 -11 0 -5 -6 -7 -12 -3 -9 5 -9 2
1 -9 9 -12 10 -17 2 -17 -7 0 -9 -5 -6 -10 4 -6 12 -7 18 -4 7 4 9 4 5 -1 -4
-4 -3 -17 3 -28 8 -15 8 -18 -1 -12 -9 6 -9 3 -1 -12 6 -11 7 -23 4 -27 -3 -3
-1 -6 5 -6 6 0 10 -13 10 -29 -1 -16 6 -36 14 -45 9 -8 14 -27 13 -41 -3 -21
-1 -24 10 -15 8 6 12 20 10 31 -2 11 0 17 6 14 5 -4 9 -1 9 5 0 6 5 8 13 4 9
-6 9 -4 -1 8 -11 14 -10 18 5 27 20 10 32 81 13 81 -5 0 -10 5 -10 11 0 5 6 7
13 3 6 -4 3 3 -8 16 -12 14 -14 20 -5 15 12 -7 13 -6 3 7 -7 8 -10 18 -6 21 3
4 1 7 -5 7 -7 0 -10 12 -8 30 2 21 -1 30 -12 30 -12 0 -12 2 -1 17 10 11 10
14 2 9 -9 -5 -13 0 -13 13 0 12 -4 21 -9 21 -6 0 -8 9 -6 20 2 11 -1 22 -6 25
-5 4 -6 11 -3 17 5 7 2 9 -8 5 -12 -4 -14 -1 -11 14 3 11 0 19 -6 19 -7 0 -9
5 -6 10 3 6 4 10 1 10 -3 0 -7 -2 -7 -5z"/>
<path d="M2975 5433 c-40 -14 -58 -31 -49 -45 3 -4 -2 -8 -10 -8 -27 0 -31 2
-28 12 1 5 -1 7 -6 4 -4 -2 -8 -17 -7 -33 0 -16 -6 -31 -15 -35 -12 -5 -10 -7
5 -7 16 -1 17 -3 6 -10 -12 -8 -13 -12 -1 -25 11 -14 10 -16 -6 -9 -17 6 -18
5 -4 -12 8 -10 10 -16 4 -12 -7 4 -14 0 -17 -7 -3 -8 -1 -17 6 -20 8 -3 8 -5
-2 -5 -11 -1 -11 -4 -1 -16 7 -8 9 -15 4 -15 -10 0 -10 -72 0 -89 4 -6 4 -11
-1 -11 -4 0 -9 -11 -9 -25 -2 -23 0 -24 15 -13 14 11 14 11 4 -3 -7 -9 -9 -20
-5 -24 4 -5 1 -5 -6 -1 -9 5 -11 -2 -6 -31 6 -41 14 -57 14 -30 0 11 5 14 18
10 16 -7 16 -6 0 11 -22 22 -23 27 -1 19 11 -4 14 -3 9 5 -4 7 -1 15 8 18 8 3
12 12 9 20 -3 9 0 13 8 11 8 -2 11 -2 7 0 -12 7 -9 31 5 40 6 4 18 19 25 32
10 17 10 21 1 15 -9 -5 -10 -2 -6 10 4 10 7 20 7 22 0 3 5 2 11 -1 6 -4 5 3
-3 14 -11 18 -11 23 2 31 13 9 13 10 0 10 -13 0 -13 2 -1 9 8 5 12 18 8 31 -4
17 -2 20 11 15 14 -5 15 -4 5 6 -16 16 -17 51 -1 67 7 7 9 12 5 12 -4 0 -3 9
3 20 8 15 8 20 -2 20 -7 0 -2 9 12 20 29 22 28 23 -25 3z m-5 -17 c0 -2 -7 -7
-16 -10 -8 -3 -12 -2 -9 4 6 10 25 14 25 6z"/>
<path d="M6914 5149 c-21 -24 -21 -28 -2 -41 9 -6 5 -7 -11 -3 -16 5 -21 4
-17 -4 4 -6 2 -11 -4 -11 -7 0 -10 -7 -6 -15 4 -13 2 -13 -14 -5 -16 9 -18 7
-15 -12 3 -12 0 -27 -6 -35 -8 -9 -8 -13 0 -13 6 0 11 -5 11 -11 0 -5 -3 -8
-8 -5 -4 2 -7 -13 -7 -34 0 -21 3 -36 7 -34 5 3 8 0 8 -5 0 -6 -6 -11 -12 -11
-8 0 -9 -3 -3 -8 14 -10 17 -32 4 -32 -8 0 -7 -6 2 -17 10 -11 10 -14 2 -9 -7
4 -13 2 -13 -3 0 -6 6 -11 13 -11 8 0 7 -3 -3 -10 -8 -5 -11 -12 -7 -16 4 -4
-1 -13 -11 -20 -9 -7 -12 -14 -5 -14 7 0 10 -11 7 -29 -4 -22 0 -30 15 -34 13
-3 18 -1 15 8 -3 6 3 18 13 26 17 13 17 13 3 -6 -14 -19 -14 -19 3 -6 10 8 16
20 13 27 -3 8 0 11 8 8 7 -3 16 2 20 11 3 9 11 13 17 9 8 -4 9 -3 5 4 -4 7 -3
12 1 12 5 0 9 25 10 55 1 40 -2 53 -10 48 -9 -5 -9 -3 0 8 7 8 10 29 7 48 -3
19 -2 31 4 27 5 -3 7 5 4 19 -2 15 -9 22 -16 18 -6 -3 -2 4 9 17 11 13 15 20
9 17 -15 -9 -27 20 -12 29 7 5 8 2 3 -6 -5 -8 -4 -11 3 -7 14 9 3 49 -12 40
-6 -3 -3 3 7 14 15 17 15 22 4 32 -11 8 -18 6 -33 -10z m24 -5 c-1 -5 -9 -9
-16 -10 -10 -2 -11 1 -1 12 12 14 24 13 17 -2z"/>
<path d="M1886 5031 c-9 -10 -25 -45 -35 -77 -10 -33 -43 -111 -73 -174 -30
-63 -61 -133 -68 -155 -31 -95 -104 -221 -306 -525 -93 -140 -147 -209 -221
-285 -54 -55 -129 -138 -166 -185 -237 -298 -312 -388 -385 -466 -102 -108
-204 -232 -368 -449 -25 -33 -74 -89 -107 -125 -34 -36 -83 -90 -109 -120
l-48 -55 0 -1207 c1 -772 4 -1208 10 -1208 6 0 29 13 52 30 22 16 46 30 52 30
6 0 25 13 41 28 29 27 75 43 260 92 39 10 99 24 135 30 223 39 332 60 342 66
7 4 77 11 157 16 80 4 196 12 256 18 61 5 171 14 245 20 161 12 313 35 412 62
169 46 216 58 271 68 66 13 247 73 352 117 63 27 128 64 162 93 7 5 17 10 22
10 16 0 184 172 233 240 14 19 37 48 52 63 14 15 29 40 33 55 3 15 16 41 28
57 51 68 109 222 160 425 21 80 39 152 42 160 2 8 6 42 8 75 2 34 11 99 19
145 9 47 18 114 20 150 2 36 7 111 11 168 l8 103 41 -2 c23 -1 70 4 106 10 36
7 117 16 180 21 63 5 167 14 230 20 63 7 149 12 190 11 41 0 100 4 130 9 30 5
127 16 215 25 88 8 178 20 200 25 61 14 196 28 329 35 66 3 123 8 127 11 4 2
49 11 101 19 252 38 441 87 549 141 66 33 144 108 164 157 33 81 13 212 -39
255 -28 24 -74 77 -58 68 7 -5 12 -1 13 11 0 11 3 13 6 5 4 -10 9 -9 20 5 8
10 11 11 7 3 -7 -13 -6 -13 10 -1 9 8 14 21 11 29 -5 13 -3 13 11 2 10 -9 18
-10 22 -4 4 6 15 13 25 17 10 4 15 12 12 17 -4 6 -3 10 2 9 16 -2 53 13 53 23
0 5 4 7 9 3 5 -3 13 4 16 16 4 11 9 18 12 16 2 -3 13 3 24 14 11 11 24 17 29
14 6 -4 10 1 10 10 0 10 5 13 13 9 9 -6 9 -5 0 8 -7 8 -9 19 -5 24 4 4 0 3 -9
-4 -8 -6 -25 -10 -37 -7 -12 2 -24 0 -27 -5 -3 -5 -15 -6 -27 -1 -23 8 -74 -6
-96 -27 -8 -7 -18 -10 -23 -7 -5 4 -6 -1 -3 -9 4 -11 -1 -14 -19 -12 -17 2
-24 -1 -20 -9 2 -7 -1 -16 -8 -21 -8 -4 -10 -3 -5 4 5 8 2 10 -8 6 -9 -3 -13
-10 -10 -15 5 -8 -12 -13 -43 -12 -6 0 -9 -5 -6 -13 3 -9 -2 -12 -15 -9 -11 2
-28 -5 -38 -16 -23 -26 -38 -24 -99 10 -44 25 -70 31 -171 41 -65 6 -144 15
-174 20 -91 16 -224 23 -450 25 -529 4 -1025 18 -1032 29 -5 6 -8 7 -8 1 0 -5
-5 -2 -11 8 -8 14 -14 16 -25 6 -12 -10 -13 -9 -8 5 5 12 -2 19 -25 27 -18 6
-28 15 -24 22 4 7 0 8 -11 4 -10 -4 -15 -3 -11 3 3 6 1 10 -5 10 -6 0 -9 4 -6
9 3 4 -6 13 -20 20 -19 8 -24 8 -18 0 4 -7 3 -10 -2 -6 -5 3 -18 -1 -29 -9
-18 -13 -18 -14 6 -15 13 0 18 -3 11 -6 -6 -2 -10 -9 -7 -14 4 -5 0 -6 -7 -4
-21 8 -19 -28 4 -55 11 -14 16 -19 12 -11 -5 9 -3 12 4 7 21 -13 13 -25 -15
-22 -16 1 -50 -2 -78 -6 -45 -7 -472 -22 -520 -19 -87 7 -233 6 -248 -1 -22
-11 -795 -19 -802 -8 -8 14 63 180 104 244 23 34 41 65 41 69 0 4 26 51 58
104 148 251 193 416 192 706 0 314 -67 525 -185 589 -28 15 -59 28 -70 28 -11
0 -33 9 -50 20 -42 28 -164 29 -189 1z"/>
<path d="M2954 4742 c4 -7 2 -12 -4 -12 -6 0 -8 -4 -5 -10 3 -5 0 -10 -7 -10
-9 0 -9 -3 2 -10 12 -8 10 -10 -10 -10 -14 0 -20 -4 -15 -8 6 -4 11 -13 13
-21 3 -12 1 -12 -14 0 -12 9 -15 9 -10 2 4 -8 2 -13 -5 -13 -7 0 -10 -3 -6 -6
3 -4 0 -13 -8 -21 -21 -21 -19 -47 3 -38 13 5 14 3 5 -6 -6 -6 -9 -18 -6 -27
5 -11 3 -13 -8 -7 -12 7 -12 6 -1 -7 7 -9 15 -33 18 -54 2 -21 11 -45 19 -54
11 -13 12 -19 3 -28 -9 -9 -9 -12 1 -12 7 0 10 -4 7 -9 -3 -5 1 -12 9 -15 13
-4 14 -10 5 -26 -8 -14 -8 -20 0 -20 6 0 8 -5 5 -10 -3 -6 1 -13 9 -16 9 -3
16 -10 16 -16 0 -5 -4 -6 -10 -3 -5 3 -10 1 -10 -4 0 -6 5 -11 10 -11 6 0 10
-7 10 -15 0 -8 5 -15 11 -15 5 0 7 -4 4 -10 -3 -5 -1 -10 5 -10 6 0 8 -5 4
-12 -4 -6 -3 -8 4 -5 5 4 8 17 4 29 -3 14 -1 19 6 14 6 -3 14 -1 18 5 4 7 3 9
-3 6 -6 -4 -13 0 -17 8 -3 8 -1 17 3 19 5 3 7 17 5 31 -1 15 3 28 11 31 8 3
11 13 8 21 -4 10 -2 14 4 10 13 -8 11 19 -2 30 -4 5 -5 1 0 -7 5 -8 4 -12 0
-7 -5 4 -10 28 -10 52 -1 25 -6 49 -10 53 -5 4 -5 -1 -2 -11 4 -10 3 -16 -3
-12 -5 3 -7 19 -4 34 4 18 0 38 -10 53 -9 14 -13 28 -9 32 9 8 12 46 3 41 -3
-2 -12 0 -20 6 -11 6 -12 9 -2 9 7 0 11 4 8 8 -3 5 -6 28 -7 51 -2 23 -7 45
-13 48 -5 3 -6 1 -2 -5z m-37 -267 c0 -8 -4 -12 -9 -9 -5 3 -6 10 -3 15 9 13
12 11 12 -6z"/>
<path d="M6864 4485 c-4 -8 -10 -12 -15 -9 -5 3 -6 -3 -2 -12 5 -14 3 -16 -11
-11 -11 4 -15 3 -10 -4 7 -12 -14 -34 -66 -67 l-35 -23 30 6 c24 4 26 4 9 -4
-26 -12 -60 -61 -42 -61 8 0 9 -3 3 -8 -5 -4 -16 -17 -23 -29 -10 -19 -10 -23
0 -23 7 -1 2 -7 -12 -15 -15 -9 -19 -14 -10 -15 12 0 13 -2 1 -9 -11 -7 -11
-9 0 -14 10 -4 8 -6 -4 -6 -10 -1 -15 -5 -12 -11 3 -5 1 -10 -4 -10 -6 0 -10
-3 -10 -7 3 -20 -2 -34 -11 -28 -5 3 -10 1 -10 -4 0 -6 6 -11 13 -12 6 0 3 -4
-8 -9 -11 -5 -15 -9 -8 -9 7 -1 10 -8 6 -18 -4 -10 -2 -14 4 -10 6 4 14 1 16
-5 4 -9 6 -7 6 3 1 9 9 23 19 30 15 13 16 12 4 -3 -19 -24 6 -29 42 -7 16 10
34 15 39 12 6 -4 7 -1 3 6 -5 7 0 21 10 32 9 10 14 19 9 19 -4 0 -2 6 4 14 9
11 9 16 0 21 -8 6 -7 10 5 17 9 5 14 13 11 19 -4 5 -2 9 4 9 5 0 8 11 7 25 -2
13 1 22 5 19 5 -3 9 2 9 10 0 9 6 16 13 16 8 0 7 4 -3 10 -12 8 -12 10 -1 10
11 0 11 3 1 15 -11 13 -10 14 5 9 13 -5 16 -4 11 4 -4 6 -2 21 5 33 8 17 8 20
-1 14 -7 -4 -4 5 6 21 11 15 14 25 8 22 -6 -4 -11 -1 -11 6 0 8 6 12 14 9 7
-3 13 0 13 6 0 6 -5 11 -11 11 -6 0 -9 7 -5 15 3 8 3 15 0 15 -2 0 -7 -7 -10
-15z m-89 -334 c3 -5 2 -12 -3 -15 -5 -3 -9 1 -9 9 0 17 3 19 12 6z"/>
<path d="M3028 4323 c7 -3 16 -2 19 1 4 3 -2 6 -13 5 -11 0 -14 -3 -6 -6z"/>
<path d="M3164 4052 c13 -15 15 -21 5 -17 -9 3 -19 -5 -26 -21 -12 -26 -12
-26 9 -8 21 19 21 18 -1 -13 -12 -18 -28 -33 -34 -33 -9 0 -9 -2 -1 -8 6 -4
10 -17 9 -29 -1 -13 3 -19 8 -16 6 4 8 -1 4 -11 -4 -10 -3 -15 3 -11 6 3 10
-1 10 -10 0 -9 4 -14 9 -10 6 3 8 -3 6 -15 -2 -11 1 -23 7 -26 7 -5 8 -2 3 6
-5 9 -4 11 3 6 7 -4 12 -14 12 -22 0 -8 5 -14 10 -14 6 0 10 -7 10 -15 0 -8 5
-15 10 -15 6 0 10 -7 10 -15 0 -8 5 -15 11 -15 6 0 8 -7 5 -16 -3 -8 -2 -13 2
-10 12 7 44 -34 38 -49 -3 -9 0 -12 10 -8 8 3 14 -1 14 -11 0 -9 7 -16 17 -16
9 0 14 -3 10 -6 -7 -8 38 -54 53 -54 6 0 8 -4 5 -10 -3 -5 -1 -10 4 -10 21 0
16 84 -7 126 -6 12 -8 24 -5 28 3 3 1 6 -5 6 -7 0 -12 5 -12 11 0 5 6 7 13 3
6 -3 0 6 -16 20 -15 15 -25 31 -22 36 3 5 -5 16 -17 24 -12 9 -19 16 -15 16 7
0 0 11 -30 45 -7 7 -13 21 -13 30 0 9 -4 13 -10 10 -5 -3 -10 1 -10 9 0 9 -5
16 -11 16 -5 0 -8 4 -5 9 3 5 -1 12 -10 15 -13 5 -14 9 -4 21 9 11 7 16 -9 27
-12 7 -21 18 -21 24 0 6 -10 19 -22 30 l-23 19 19 -23z m51 -62 c3 -6 -1 -7
-9 -4 -18 7 -21 14 -7 14 6 0 13 -4 16 -10z m-65 -30 c0 -5 -5 -10 -11 -10 -5
0 -7 5 -4 10 3 6 8 10 11 10 2 0 4 -4 4 -10z"/>
<path d="M4745 4005 c-27 -15 -55 -44 -55 -55 0 -5 -7 -10 -15 -10 -9 0 -12
-6 -9 -15 4 -8 1 -15 -5 -15 -7 0 -11 -40 -11 -125 0 -80 4 -125 10 -125 6 0
10 -6 8 -13 -4 -16 37 -57 57 -57 8 0 15 -5 15 -11 0 -6 6 -9 14 -6 8 3 17 0
20 -8 6 -16 81 -14 98 3 6 6 16 8 23 5 18 -6 84 65 91 100 4 15 9 27 13 27 10
0 7 143 -4 160 -5 8 -10 20 -11 25 -3 25 -17 55 -25 55 -5 0 -9 6 -9 14 0 12
-46 36 -67 35 -3 -1 -9 5 -14 12 -10 16 -99 19 -124 4z"/>
<path d="M6580 3842 c0 -8 -9 -12 -22 -10 -15 2 -22 -2 -20 -10 2 -9 -2 -11
-10 -6 -22 14 -39 13 -45 -2 -3 -8 -9 -11 -14 -8 -5 3 -9 0 -9 -6 0 -6 -5 -8
-12 -4 -8 5 -9 0 -5 -15 4 -17 2 -21 -9 -17 -8 3 -12 2 -9 -4 3 -5 -4 -14 -15
-20 -11 -6 -20 -20 -20 -31 0 -11 -3 -18 -7 -16 -5 3 -17 -4 -28 -15 -20 -19
-20 -19 0 -13 11 4 5 -2 -13 -14 -18 -12 -36 -29 -39 -38 -4 -10 -19 -30 -35
-45 -15 -15 -23 -30 -18 -33 6 -3 10 -3 10 1 0 4 9 -1 20 -11 11 -10 20 -14
20 -9 0 5 7 0 15 -10 13 -17 15 -17 15 -3 0 10 5 14 15 11 8 -4 15 -1 15 6 0
6 5 8 10 5 6 -3 10 -1 10 5 0 6 5 8 13 4 9 -6 9 -4 -1 8 -11 14 -10 17 8 23
11 4 17 11 14 17 -5 8 -1 9 10 5 10 -4 15 -3 11 3 -3 6 1 13 9 16 9 3 16 10
16 15 0 4 11 20 25 35 14 15 25 33 25 40 0 8 5 14 11 14 6 0 9 7 6 14 -4 10
-1 13 7 10 8 -3 18 7 26 26 7 17 20 35 29 40 9 4 17 19 18 32 0 13 -1 17 -4 9
-5 -11 -7 -11 -14 0 -7 11 -9 11 -9 1z m-270 -306 c0 -3 -4 -8 -10 -11 -5 -3
-10 -1 -10 4 0 6 5 11 10 11 6 0 10 -2 10 -4z"/>
<path d="M3400 3540 c-12 -7 -10 -9 8 -7 12 0 22 5 22 9 0 11 -12 10 -30 -2z"/>
<path d="M3626 3454 c-9 -24 -2 -26 12 -4 7 11 8 20 3 20 -5 0 -12 -7 -15 -16z"/>
</g>
</svg>
